<svg width="70" height="72" viewBox="0 0 70 72" fill="none" xmlns="http://www.w3.org/2000/svg">
<path d="M59.5738 10.7251C53.0293 4.04053 44.153 0.285156 34.8975 0.285156C25.6421 0.285156 16.7658 4.04053 10.2213 10.7251C3.67669 17.4097 0 26.476 0 35.9295C0 45.3829 3.67669 54.4492 10.2213 61.1338C16.7658 67.8184 25.6421 71.5738 34.8975 71.5738C44.153 71.5738 53.0293 67.8184 59.5738 61.1338C66.1184 54.4492 69.7951 45.3829 69.7951 35.9295C69.7951 26.476 66.1184 17.4097 59.5738 10.7251ZM34.8975 66.7963C18.2344 66.7963 4.67741 52.9495 4.67741 35.9295C4.67741 18.9095 18.2342 5.06266 34.8975 5.06266C51.5609 5.06266 65.1177 18.9095 65.1177 35.9295C65.1177 52.9495 51.5609 66.7963 34.8975 66.7963Z" fill="#4484CE"/>
<path d="M29.6395 43.402L18.9089 32.4419L15.6016 35.82L29.6395 50.1584L54.1225 25.1515L50.8151 21.7734L29.6395 43.402Z" fill="#4484CE"/>
</svg>
