<svg width="45" height="28" viewBox="0 0 45 28" fill="none" xmlns="http://www.w3.org/2000/svg">
<g clip-path="url(#clip0_166_2919)">
<path d="M0 2.15385C0 0.964309 0.95939 0 2.14286 0H42.8571C44.0406 0 45 0.96431 45 2.15385V25.8462C45 27.0357 44.0406 28 42.8571 28H2.14286C0.959389 28 0 27.0357 0 25.8462V2.15385Z" fill="white"/>
<path d="M25.6903 8.02734H19.3164V19.5409H25.6903V8.02734Z" fill="#FF5F00"/>
<path d="M19.7195 13.7828C19.7187 12.6741 19.9686 11.5798 20.4507 10.5826C20.9327 9.58542 21.6341 8.71151 22.5018 8.02701C21.4272 7.17779 20.1366 6.64961 18.7775 6.50284C17.4184 6.35607 16.0456 6.59663 14.8161 7.19702C13.5866 7.79742 12.55 8.73342 11.8247 9.89802C11.0995 11.0626 10.7148 12.4089 10.7148 13.7828C10.7148 15.1568 11.0995 16.5029 11.8247 17.6676C12.55 18.8322 13.5866 19.7682 14.8161 20.3685C16.0456 20.9689 17.4184 21.2095 18.7775 21.0627C20.1366 20.9159 21.4272 20.3878 22.5018 19.5386C21.6339 18.8543 20.9324 17.9805 20.4503 16.9832C19.9682 15.9859 19.7184 14.8915 19.7195 13.7828Z" fill="#EB001B"/>
<path d="M34.2847 13.7811C34.2844 15.1546 33.8997 16.5003 33.1745 17.6645C32.4494 18.8288 31.413 19.7644 30.184 20.3648C28.9548 20.9651 27.5825 21.2058 26.2238 21.0594C24.865 20.913 23.5746 20.3854 22.5 19.5368C23.367 18.8516 24.0678 17.9776 24.5497 16.9806C25.0317 15.9836 25.2821 14.8895 25.2821 13.7811C25.2821 12.6726 25.0317 11.5785 24.5497 10.5815C24.0678 9.58443 23.367 8.71037 22.5 8.02523C23.5746 7.17668 24.865 6.64907 26.2238 6.50266C27.5825 6.35624 28.9548 6.59694 30.184 7.19726C31.413 7.79757 32.4494 8.73329 33.1745 9.89751C33.8997 11.0617 34.2844 12.4074 34.2847 13.7811Z" fill="#F79E1B"/>
<path d="M33.591 18.3199V18.0839H33.6862V18.0352H33.4453V18.0839H33.5384V18.3199H33.591ZM34.0585 18.3199V18.0352H33.9836L33.9007 18.2385L33.8157 18.0352H33.7408V18.3199H33.7934V18.1063L33.8723 18.2893H33.9269L34.0059 18.1043V18.3199H34.0585Z" fill="#F79E1B"/>
</g>
<defs>
<clipPath id="clip0_166_2919">
<rect width="45" height="28" fill="white"/>
</clipPath>
</defs>
</svg>
