<svg width="342" height="78" viewBox="0 0 342 78" fill="none" xmlns="http://www.w3.org/2000/svg">
<path d="M86.7514 11.6255C86.7514 8.90956 86.0235 6.82293 84.5677 5.36561C87.0161 3.57707 89.9276 2.6828 93.3024 2.6828C98.927 2.6828 101.739 5.69682 101.739 11.7248C101.739 12.6522 101.541 14.3083 101.144 16.693L88.9351 64.8841C87.2146 73.5618 82.9796 77.9006 76.2301 77.9006C69.3482 77.9006 64.9808 73.5618 63.128 64.8841L52.9045 25.6357L42.2839 64.8841C41.2251 69.7197 39.637 73.0981 37.5195 75.0191C35.4681 76.9401 32.6228 77.9006 28.9833 77.9006C25.41 77.9006 22.6308 76.9401 20.6456 75.0191C18.7267 73.0981 17.2709 69.7197 16.2783 64.8841L4.76438 15.6C3.70563 11.0955 2.1175 8.18089 0 6.85605C2.71305 4.07389 5.79004 2.6828 9.23098 2.6828C12.6719 2.6828 15.3188 3.57707 17.1716 5.36561C19.0906 7.0879 20.4471 10.1682 21.2412 14.6064L29.7774 61.2076L43.0779 12.0229C44.0705 8.57835 45.427 6.16051 47.1475 4.76943C48.868 3.37835 51.184 2.6828 54.0955 2.6828C60.1172 2.6828 63.8559 5.79618 65.3117 12.0229L76.9249 62.0026L86.3544 15.3019C86.6191 13.9771 86.7514 12.7516 86.7514 11.6255Z" fill="#4484CE"/>
<path d="M134.38 43.9185C135.572 43.786 136.465 43.4217 137.06 42.8255C137.656 42.1631 137.954 40.9376 137.954 39.149C137.954 37.3605 137.424 35.7376 136.366 34.2803C135.373 32.7567 133.983 31.9949 132.197 31.9949C130.41 31.9949 128.723 33.121 127.135 35.3732C125.546 37.6255 124.488 40.9045 123.958 45.2102L134.38 43.9185ZM136.068 67.0701C141.56 67.0701 146.159 64.9834 149.865 60.8102C151.387 61.4726 152.148 62.8637 152.148 64.9834C152.148 68.1631 150.262 71.1108 146.49 73.8268C142.718 76.5427 138.285 77.9006 133.189 77.9006C125.315 77.9006 119.161 75.7478 114.727 71.442C110.36 67.1363 108.176 60.9758 108.176 52.9605C108.176 44.879 110.592 37.9898 115.422 32.293C120.253 26.5962 126.374 23.7478 133.785 23.7478C139.476 23.7478 144.174 25.6025 147.88 29.3121C151.585 32.9554 153.438 37.1287 153.438 41.8319C153.438 45.4752 152.578 48.0917 150.857 49.6815C149.137 51.2713 146.192 52.1325 142.023 52.265L123.661 52.7618C124.124 62.3006 128.26 67.0701 136.068 67.0701Z" fill="#4484CE"/>
<path d="M187.402 43.9185C188.593 43.786 189.486 43.4217 190.082 42.8255C190.677 42.1631 190.975 40.9376 190.975 39.149C190.975 37.3605 190.446 35.7376 189.387 34.2803C188.395 32.7567 187.005 31.9949 185.218 31.9949C183.432 31.9949 181.744 33.121 180.156 35.3732C178.568 37.6255 177.509 40.9045 176.98 45.2102L187.402 43.9185ZM189.089 67.0701C194.582 67.0701 199.181 64.9834 202.886 60.8102C204.408 61.4726 205.169 62.8637 205.169 64.9834C205.169 68.1631 203.283 71.1108 199.511 73.8268C195.74 76.5427 191.306 77.9006 186.211 77.9006C178.336 77.9006 172.182 75.7478 167.749 71.442C163.382 67.1363 161.198 60.9758 161.198 52.9605C161.198 44.879 163.613 37.9898 168.444 32.293C173.274 26.5962 179.395 23.7478 186.806 23.7478C192.497 23.7478 197.195 25.6025 200.901 29.3121C204.607 32.9554 206.459 37.1287 206.459 41.8319C206.459 45.4752 205.599 48.0917 203.879 49.6815C202.158 51.2713 199.214 52.1325 195.045 52.265L176.682 52.7618C177.145 62.3006 181.281 67.0701 189.089 67.0701Z" fill="#F19F4D"/>
<path d="M240.424 43.9185C241.615 43.786 242.508 43.4217 243.103 42.8255C243.699 42.1631 243.997 40.9376 243.997 39.149C243.997 37.3605 243.467 35.7376 242.409 34.2803C241.416 32.7567 240.026 31.9949 238.24 31.9949C236.453 31.9949 234.766 33.121 233.178 35.3732C231.59 37.6255 230.531 40.9045 230.001 45.2102L240.424 43.9185ZM242.111 67.0701C247.603 67.0701 252.202 64.9834 255.908 60.8102C257.43 61.4726 258.191 62.8637 258.191 64.9834C258.191 68.1631 256.305 71.1108 252.533 73.8268C248.761 76.5427 244.328 77.9006 239.232 77.9006C231.358 77.9006 225.204 75.7478 220.77 71.442C216.403 67.1363 214.219 60.9758 214.219 52.9605C214.219 44.879 216.635 37.9898 221.465 32.293C226.296 26.5962 232.417 23.7478 239.828 23.7478C245.519 23.7478 250.217 25.6025 253.923 29.3121C257.628 32.9554 259.481 37.1287 259.481 41.8319C259.481 45.4752 258.621 48.0917 256.9 49.6815C255.18 51.2713 252.235 52.1325 248.066 52.265L229.704 52.7618C230.167 62.3006 234.303 67.0701 242.111 67.0701Z" fill="#D9D9D9"/>
<path d="M293.445 43.9185C294.636 43.786 295.529 43.4217 296.125 42.8255C296.721 42.1631 297.018 40.9376 297.018 39.149C297.018 37.3605 296.489 35.7376 295.43 34.2803C294.438 32.7567 293.048 31.9949 291.261 31.9949C289.475 31.9949 287.787 33.121 286.199 35.3732C284.611 37.6255 283.552 40.9045 283.023 45.2102L293.445 43.9185ZM295.132 67.0701C300.625 67.0701 305.224 64.9834 308.929 60.8102C310.451 61.4726 311.212 62.8637 311.212 64.9834C311.212 68.1631 309.326 71.1108 305.555 73.8268C301.783 76.5427 297.349 77.9006 292.254 77.9006C284.38 77.9006 278.226 75.7478 273.792 71.442C269.425 67.1363 267.241 60.9758 267.241 52.9605C267.241 44.879 269.656 37.9898 274.487 32.293C279.317 26.5962 285.438 23.7478 292.85 23.7478C298.54 23.7478 303.239 25.6025 306.944 29.3121C310.65 32.9554 312.503 37.1287 312.503 41.8319C312.503 45.4752 311.642 48.0917 309.922 49.6815C308.201 51.2713 305.257 52.1325 301.088 52.265L282.725 52.7618C283.188 62.3006 287.324 67.0701 295.132 67.0701Z" fill="#F9CF00"/>
<path d="M337.037 40.0433C336.442 43.4879 336.144 46.2701 336.144 48.3898C336.144 50.4433 336.243 52.0994 336.442 53.358C335.317 54.2854 334.059 54.749 332.67 54.749C329.03 54.749 326.747 51.7019 325.821 45.6076L321.95 16.693C321.751 15.3019 321.652 14.0102 321.652 12.8178C321.652 9.57198 322.38 6.82293 323.836 4.5707C325.755 1.52357 328.402 0 331.776 0C335.217 0 337.93 1.55669 339.916 4.67007C341.305 6.78981 342 9.34013 342 12.321C342 13.7121 341.868 15.1694 341.603 16.693L337.037 40.0433ZM333.662 60.7108C336.045 60.7108 337.897 61.4064 339.221 62.7975C340.544 64.1223 341.206 65.9771 341.206 68.3618C341.206 70.6803 340.18 72.8662 338.129 74.9197C336.144 76.9732 333.96 78 331.578 78C329.196 78 327.31 77.3045 325.92 75.9134C324.597 74.5223 323.935 72.6675 323.935 70.349C323.935 68.0306 324.961 65.8446 327.012 63.7911C329.13 61.7376 331.346 60.7108 333.662 60.7108Z" fill="#F9CF00"/>
</svg>
