<svg width="45" height="28" viewBox="0 0 45 28" fill="none" xmlns="http://www.w3.org/2000/svg">
<g clip-path="url(#clip0_166_2912)">
<path d="M0 2.15385C0 0.964309 0.95939 0 2.14286 0H42.8571C44.0406 0 45 0.96431 45 2.15385V25.8462C45 27.0357 44.0406 28 42.8571 28H2.14286C0.959389 28 0 27.0357 0 25.8462V2.15385Z" fill="white"/>
<path d="M27.1211 16.1851H28.5901C28.6321 16.1851 28.7301 16.1705 28.7721 16.1705C29.0519 16.1119 29.2898 15.8479 29.2898 15.4812C29.2898 15.1293 29.0519 14.8653 28.7721 14.7921C28.7301 14.7773 28.6462 14.7773 28.5901 14.7773H27.1211V16.1851Z" fill="url(#paint0_linear_166_2912)"/>
<path d="M28.4198 6.46094C27.0206 6.46094 25.8733 7.64874 25.8733 9.12983V11.9013H29.4691C29.553 11.9013 29.6509 11.9013 29.7209 11.9161C30.5324 11.96 31.134 12.4 31.134 13.1625C31.134 13.7638 30.7283 14.277 29.9728 14.3797V14.409C30.7982 14.4676 31.4278 14.9515 31.4278 15.6994C31.4278 16.5059 30.7283 17.0338 29.8049 17.0338H25.8594V22.4596H29.595C30.9941 22.4596 32.1414 21.2719 32.1414 19.7908V6.46094H28.4198Z" fill="url(#paint1_linear_166_2912)"/>
<path d="M29.1078 13.3405C29.1078 12.9886 28.87 12.7539 28.5901 12.71C28.5622 12.71 28.4922 12.6953 28.4503 12.6953H27.1211V13.9858H28.4503C28.4922 13.9858 28.5762 13.9858 28.5901 13.971C28.87 13.9271 29.1078 13.6924 29.1078 13.3405Z" fill="url(#paint2_linear_166_2912)"/>
<path d="M14.3455 6.46094C12.9464 6.46094 11.7992 7.64874 11.7992 9.12983V15.7141C12.5127 16.0807 13.2542 16.3153 13.9957 16.3153C14.8772 16.3153 15.3529 15.7581 15.3529 14.9956V11.8867H17.5355V14.9809C17.5355 16.1834 16.8219 17.1659 14.4015 17.1659C12.9324 17.1659 11.7852 16.8286 11.7852 16.8286V22.445H15.5208C16.9199 22.445 18.0672 21.2572 18.0672 19.7761V6.46094H14.3455Z" fill="url(#paint3_linear_166_2912)"/>
<path d="M21.3824 6.46094C19.9832 6.46094 18.8359 7.64874 18.8359 9.12983V12.62C19.4795 12.048 20.5989 11.6814 22.4037 11.7694C23.369 11.8134 24.4045 12.0921 24.4045 12.0921V13.2212C23.8868 12.9425 23.2711 12.6932 22.4737 12.6346C21.1025 12.532 20.277 13.2359 20.277 14.4676C20.277 15.7141 21.1025 16.418 22.4737 16.3007C23.2711 16.242 23.8868 15.978 24.4045 15.7141V16.8432C24.4045 16.8432 23.3831 17.1218 22.4037 17.1659C20.5989 17.2539 19.4795 16.8873 18.8359 16.3153V22.4744H22.5716C23.9708 22.4744 25.118 21.2865 25.118 19.8054V6.46094H21.3824Z" fill="url(#paint4_linear_166_2912)"/>
</g>
<defs>
<linearGradient id="paint0_linear_166_2912" x1="25.8735" y1="17.5237" x2="32.1608" y2="17.5237" gradientUnits="userSpaceOnUse">
<stop stop-color="#007940"/>
<stop offset="0.2285" stop-color="#00873F"/>
<stop offset="0.7433" stop-color="#40A737"/>
<stop offset="1" stop-color="#5CB531"/>
</linearGradient>
<linearGradient id="paint1_linear_166_2912" x1="25.8708" y1="22.4606" x2="32.1585" y2="22.4606" gradientUnits="userSpaceOnUse">
<stop stop-color="#007940"/>
<stop offset="0.2285" stop-color="#00873F"/>
<stop offset="0.7433" stop-color="#40A737"/>
<stop offset="1" stop-color="#5CB531"/>
</linearGradient>
<linearGradient id="paint2_linear_166_2912" x1="25.8734" y1="15.3806" x2="32.1609" y2="15.3806" gradientUnits="userSpaceOnUse">
<stop stop-color="#007940"/>
<stop offset="0.2285" stop-color="#00873F"/>
<stop offset="0.7433" stop-color="#40A737"/>
<stop offset="1" stop-color="#5CB531"/>
</linearGradient>
<linearGradient id="paint3_linear_166_2912" x1="11.7962" y1="22.5764" x2="18.1807" y2="22.5764" gradientUnits="userSpaceOnUse">
<stop stop-color="#1F286F"/>
<stop offset="0.4751" stop-color="#004E94"/>
<stop offset="0.8261" stop-color="#0066B1"/>
<stop offset="1" stop-color="#006FBC"/>
</linearGradient>
<linearGradient id="paint4_linear_166_2912" x1="18.7998" y1="22.3572" x2="25.0007" y2="22.3572" gradientUnits="userSpaceOnUse">
<stop stop-color="#6C2C2F"/>
<stop offset="0.1735" stop-color="#882730"/>
<stop offset="0.5731" stop-color="#BE1833"/>
<stop offset="0.8585" stop-color="#DC0436"/>
<stop offset="1" stop-color="#E60039"/>
</linearGradient>
<clipPath id="clip0_166_2912">
<rect width="45" height="28" fill="white"/>
</clipPath>
</defs>
</svg>
