<svg width="45" height="28" viewBox="0 0 45 28" fill="none" xmlns="http://www.w3.org/2000/svg">
<g clip-path="url(#clip0_166_2926)">
<path d="M0 2.15385C0 0.964309 0.95939 0 2.14286 0H42.8571C44.0406 0 45 0.96431 45 2.15385V25.8462C45 27.0357 44.0406 28 42.8571 28H2.14286C0.959389 28 0 27.0357 0 25.8462V2.15385Z" fill="white"/>
<path d="M18.6331 8.80228L14.4247 18.8934H11.6792L9.60832 10.8395C9.48258 10.3435 9.37394 10.1619 8.99107 9.95291C8.3668 9.61233 7.33588 9.29313 6.42969 9.09474L6.49046 8.80228H10.9101C11.4734 8.80228 11.9798 9.17937 12.1078 9.83142L13.2015 15.6704L15.9043 8.80228H18.6331ZM29.3908 15.5992C29.4018 12.9359 25.7265 12.7891 25.7518 11.5993C25.7596 11.2371 26.1033 10.8521 26.8534 10.7537C27.2256 10.7047 28.251 10.6674 29.4149 11.2054L29.871 9.06546C29.245 8.83593 28.4408 8.61719 27.4405 8.61719C24.8732 8.61719 23.0665 9.98892 23.0512 11.9532C23.0345 13.4059 24.3403 14.2167 25.3247 14.6994C26.337 15.1939 26.6766 15.5115 26.6728 15.9537C26.6656 16.6308 25.8656 16.9296 25.1176 16.9413C23.8117 16.9615 23.0548 16.5862 22.4507 16.304L21.9799 18.515C22.5869 18.7948 23.707 19.0389 24.8685 19.0511C27.5973 19.0511 29.382 17.6965 29.3905 15.5983L29.3908 15.5992ZM36.1695 18.8934H38.5717L36.4748 8.80228H34.2577C34.021 8.80028 33.789 8.86978 33.5921 9.00179C33.395 9.1338 33.242 9.32223 33.1528 9.54266L29.2548 18.8934H31.9821L32.5236 17.3858H35.8551L36.1695 18.8934ZM33.2715 15.3175L34.6385 11.5282L35.4254 15.3174L33.2715 15.3175ZM22.3439 8.80228L20.1962 18.8934H17.599L19.7476 8.80228H22.3439Z" fill="#1434CB"/>
</g>
<defs>
<clipPath id="clip0_166_2926">
<rect width="45" height="28" fill="white"/>
</clipPath>
</defs>
</svg>
